<svg width="29" height="28" viewBox="0 0 29 28" fill="none" xmlns="http://www.w3.org/2000/svg">
<path d="M23.0007 3.5H6.66732C5.38398 3.5 4.33398 4.55 4.33398 5.83333V22.1667C4.33398 23.45 5.38398 24.5 6.66732 24.5H23.0007C24.284 24.5 25.334 23.45 25.334 22.1667V5.83333C25.334 4.55 24.284 3.5 23.0007 3.5ZM23.0007 22.1667H6.66732V5.83333H23.0007V22.1667Z" fill="#61646B"/>
<path d="M11.334 14H9.00065V19.8333H11.334V14Z" fill="#61646B"/>
<path d="M20.6673 8.16667H18.334V19.8333H20.6673V8.16667Z" fill="#61646B"/>
<path d="M16.0007 16.3333H13.6673V19.8333H16.0007V16.3333Z" fill="#61646B"/>
<path d="M16.0007 11.6667H13.6673V14H16.0007V11.6667Z" fill="#61646B"/>
</svg>
