<svg width="28" height="28" viewBox="0 0 28 28" fill="none" xmlns="http://www.w3.org/2000/svg">
<path fill-rule="evenodd" clip-rule="evenodd" d="M21.8345 6.69549C21.4885 6.13143 20.8694 5.83597 20.2503 5.91135C20.12 5.92722 19.871 6.01754 19.3578 6.38234C18.8586 6.7372 18.2262 7.26309 17.3299 8.0097L16.3168 8.85354V16.2202L17.5178 17.0667C18.3919 17.6827 19.0045 18.1137 19.4869 18.4005C19.9785 18.6929 20.2168 18.7604 20.3476 18.7682C20.947 18.8039 21.5294 18.4962 21.8522 17.9458C21.9274 17.8175 22.0087 17.5648 22.0523 16.9806C22.0951 16.4066 22.0957 15.6407 22.0957 14.5518V10.3804C22.0957 9.19486 22.0951 8.35627 22.0489 7.7316C22.0015 7.09091 21.9125 6.82252 21.8345 6.69549ZM14.5168 15.787V9.33188H8.82665C8.21899 9.33188 7.8096 9.33239 7.49224 9.35466C7.18348 9.37633 7.02939 9.41538 6.92508 9.45982C6.52372 9.63082 6.19705 9.96241 6.02497 10.3897C5.97831 10.5056 5.9394 10.6725 5.91804 10.9945C5.89617 11.3241 5.89571 11.7483 5.89571 12.3723V13.7637C5.89571 14.0577 5.89655 14.1475 5.90239 14.2151C5.97591 15.0662 6.62555 15.7091 7.40556 15.7804C7.46718 15.786 7.55037 15.787 7.83782 15.787H14.5168ZM15.091 7.53188L16.2084 6.60119C17.0673 5.88575 17.7526 5.31496 18.3149 4.91525C18.8699 4.52074 19.4299 4.19794 20.0328 4.12454C21.369 3.96187 22.6642 4.60555 23.3689 5.75429C23.685 6.26957 23.7929 6.90786 23.844 7.59882C23.8957 8.29796 23.8957 9.20349 23.8957 10.342V14.5898C23.8957 15.632 23.8957 16.4654 23.8473 17.1145C23.7991 17.7613 23.6968 18.3588 23.4048 18.8565C22.7485 19.9754 21.5335 20.642 20.2406 20.565C19.6618 20.5305 19.1144 20.2732 18.5669 19.9477C18.0172 19.6208 17.3475 19.1488 16.513 18.5607L15.1315 17.587H14.8957V20.6201C14.8957 22.4073 13.4807 23.8997 11.6822 23.8997C11.0746 23.8997 10.4662 23.7253 9.94532 23.3718C8.82002 22.608 7.98713 21.9041 7.50069 20.8146C7.11135 19.9425 6.97972 18.8976 6.94692 17.533C5.40759 17.2562 4.24585 15.9535 4.10907 14.37C4.09563 14.2144 4.09567 14.04 4.09571 13.8044C4.09571 13.791 4.09571 13.7775 4.09571 13.7637L4.09571 12.3423C4.0957 11.7558 4.0957 11.2717 4.12199 10.8754C4.14923 10.4647 4.20753 10.0842 4.35527 9.71732C4.70162 8.85728 5.36932 8.16609 6.21955 7.80385C6.58459 7.64833 6.96266 7.5874 7.36623 7.55908C7.75411 7.53186 8.22697 7.53187 8.79533 7.53188L15.091 7.53188ZM8.74948 17.587C8.7851 18.8212 8.90495 19.5446 9.14433 20.0808C9.41652 20.6904 9.89011 21.1588 10.9562 21.8825C11.1641 22.0236 11.4168 22.0997 11.6822 22.0997C12.4391 22.0997 13.0957 21.4613 13.0957 20.6201V17.587H8.74948Z" fill="#61646B"/>
</svg>
