<svg width="29" height="28" viewBox="0 0 29 28" fill="none" xmlns="http://www.w3.org/2000/svg">
<g clip-path="url(#clip0_1052_2226)">
<path d="M4.83268 15.1667C6.11602 15.1667 7.16602 14.1167 7.16602 12.8333C7.16602 11.55 6.11602 10.5 4.83268 10.5C3.54935 10.5 2.49935 11.55 2.49935 12.8333C2.49935 14.1167 3.54935 15.1667 4.83268 15.1667ZM6.15102 16.45C5.71935 16.38 5.28768 16.3333 4.83268 16.3333C3.67768 16.3333 2.58102 16.5783 1.58935 17.01C0.726016 17.3833 0.166016 18.2233 0.166016 19.1683V21H5.41602V19.1217C5.41602 18.1533 5.68435 17.2433 6.15102 16.45ZM23.4993 15.1667C24.7827 15.1667 25.8327 14.1167 25.8327 12.8333C25.8327 11.55 24.7827 10.5 23.4993 10.5C22.216 10.5 21.166 11.55 21.166 12.8333C21.166 14.1167 22.216 15.1667 23.4993 15.1667ZM28.166 19.1683C28.166 18.2233 27.606 17.3833 26.7427 17.01C25.751 16.5783 24.6543 16.3333 23.4993 16.3333C23.0443 16.3333 22.6127 16.38 22.181 16.45C22.6477 17.2433 22.916 18.1533 22.916 19.1217V21H28.166V19.1683ZM19.1127 15.925C17.7477 15.3183 16.0677 14.875 14.166 14.875C12.2643 14.875 10.5843 15.33 9.21935 15.925C7.95935 16.485 7.16602 17.745 7.16602 19.1217V21H21.166V19.1217C21.166 17.745 20.3727 16.485 19.1127 15.925ZM9.58101 18.6667C9.68602 18.3983 9.73268 18.2117 10.6427 17.8617C11.7743 17.4183 12.9643 17.2083 14.166 17.2083C15.3677 17.2083 16.5577 17.4183 17.6893 17.8617C18.5877 18.2117 18.6343 18.3983 18.751 18.6667H9.58101ZM14.166 9.33333C14.8077 9.33333 15.3327 9.85833 15.3327 10.5C15.3327 11.1417 14.8077 11.6667 14.166 11.6667C13.5243 11.6667 12.9993 11.1417 12.9993 10.5C12.9993 9.85833 13.5243 9.33333 14.166 9.33333ZM14.166 7C12.2293 7 10.666 8.56333 10.666 10.5C10.666 12.4367 12.2293 14 14.166 14C16.1027 14 17.666 12.4367 17.666 10.5C17.666 8.56333 16.1027 7 14.166 7Z" fill="#61646B"/>
</g>
<defs>
<clipPath id="clip0_1052_2226">
<rect width="28" height="28" fill="white" transform="translate(0.166016)"/>
</clipPath>
</defs>
</svg>
