<svg width="20" height="20" viewBox="0 0 20 20" fill="none" xmlns="http://www.w3.org/2000/svg">
<path d="M9.99935 2.99935C11.2827 2.99935 12.3327 4.04935 12.3327 5.33268C12.3327 6.61602 11.2827 7.66602 9.99935 7.66602C8.71602 7.66602 7.66602 6.61602 7.66602 5.33268C7.66602 4.04935 8.71602 2.99935 9.99935 2.99935ZM9.99935 14.666C13.1494 14.666 16.766 16.171 16.9993 16.9993H2.99935C3.26768 16.1594 6.86102 14.666 9.99935 14.666ZM9.99935 0.666016C7.42102 0.666016 5.33268 2.75435 5.33268 5.33268C5.33268 7.91102 7.42102 9.99935 9.99935 9.99935C12.5777 9.99935 14.666 7.91102 14.666 5.33268C14.666 2.75435 12.5777 0.666016 9.99935 0.666016ZM9.99935 12.3327C6.88435 12.3327 0.666016 13.896 0.666016 16.9993V19.3327H19.3327V16.9993C19.3327 13.896 13.1144 12.3327 9.99935 12.3327Z" fill="#61646B"/>
</svg>
